<svg width="26" height="26" viewBox="0 0 26 26" fill="none" xmlns="http://www.w3.org/2000/svg">
<path d="M8.32006 1.56006C4.59295 1.56006 1.56006 4.59295 1.56006 8.32006V17.6801C1.56006 21.4072 4.59295 24.4401 8.32006 24.4401H17.6801C21.4072 24.4401 24.4401 21.4072 24.4401 17.6801V8.32006C24.4401 4.59295 21.4072 1.56006 17.6801 1.56006H8.32006ZM8.32006 2.60006H17.6801C20.845 2.60006 23.4001 5.15509 23.4001 8.32006V17.6801C23.4001 20.845 20.845 23.4001 17.6801 23.4001H8.32006C5.15509 23.4001 2.60006 20.845 2.60006 17.6801V8.32006C2.60006 5.15509 5.15509 2.60006 8.32006 2.60006ZM19.2401 5.72006C18.9642 5.72006 18.6997 5.82963 18.5047 6.02467C18.3096 6.21971 18.2001 6.48423 18.2001 6.76006C18.2001 7.03588 18.3096 7.30041 18.5047 7.49545C18.6997 7.69049 18.9642 7.80006 19.2401 7.80006C19.5159 7.80006 19.7804 7.69049 19.9755 7.49545C20.1705 7.30041 20.2801 7.03588 20.2801 6.76006C20.2801 6.48423 20.1705 6.21971 19.9755 6.02467C19.7804 5.82963 19.5159 5.72006 19.2401 5.72006ZM13.0001 7.28006C9.84715 7.28006 7.28006 9.84715 7.28006 13.0001C7.28006 16.153 9.84715 18.7201 13.0001 18.7201C16.153 18.7201 18.7201 16.153 18.7201 13.0001C18.7201 9.84715 16.153 7.28006 13.0001 7.28006ZM13.0001 8.32006C15.5909 8.32006 17.6801 10.4092 17.6801 13.0001C17.6801 15.5909 15.5909 17.6801 13.0001 17.6801C10.4092 17.6801 8.32006 15.5909 8.32006 13.0001C8.32006 10.4092 10.4092 8.32006 13.0001 8.32006Z" fill="#4B2E28"/>
</svg>
