<svg width="197" height="36" viewBox="0 0 197 36" fill="none" xmlns="http://www.w3.org/2000/svg">
<path d="M64.3145 6.02148L63.2773 21.3145C64.4609 20.6699 65.6035 19.9199 66.7051 19.0645C67.8066 18.209 68.8438 17.3008 69.8164 16.3398C70.8008 15.3789 71.709 14.4004 72.541 13.4043C73.373 12.3965 74.1055 11.4238 74.7383 10.4863C75.3828 9.54883 75.916 8.66992 76.3379 7.84961C76.7598 7.0293 77.0469 6.32031 77.1992 5.72266L82.2793 7.02344C81.9043 7.90234 81.3535 8.85742 80.627 9.88867C79.9004 10.9082 79.0449 11.9512 78.0605 13.0176C77.0879 14.084 76.0098 15.1387 74.8262 16.1816C73.6543 17.2246 72.4297 18.2031 71.1523 19.1172L81.998 30.5254L76.373 31.9668L69.0605 20.5234C68.0645 21.1445 67.0684 21.707 66.0723 22.2109C65.0879 22.7031 64.1094 23.1133 63.1367 23.4414L62.627 31.2109L59.0234 31.2812V5.79297L64.3145 6.02148ZM97.5547 4.86133C99.1484 4.86133 100.549 5.14258 101.756 5.70508C102.963 6.25586 104.006 7.00586 104.885 7.95508C105.764 8.89258 106.496 9.98242 107.082 11.2246C107.68 12.4551 108.154 13.75 108.506 15.1094C108.857 16.457 109.104 17.8281 109.244 19.2227C109.396 20.6055 109.473 21.918 109.473 23.1602C109.473 24.25 109.402 25.293 109.262 26.2891C109.121 27.2852 108.969 28.1758 108.805 28.9609C108.605 29.875 108.383 30.7363 108.137 31.5449L102.811 30.5957C103.15 29.7871 103.467 28.8672 103.76 27.8359C104.064 26.8047 104.334 25.75 104.568 24.6719C103.15 24.543 101.732 24.4609 100.314 24.4258C98.9082 24.3906 97.5078 24.373 96.1133 24.373C95.0234 24.373 93.9336 24.3789 92.8438 24.3906C91.7539 24.4023 90.6582 24.4434 89.5566 24.5137C89.791 25.5098 90.0664 26.5059 90.3828 27.502C90.6992 28.498 91.0625 29.5176 91.4727 30.5605L85.918 31.5801C85.6602 31.041 85.4258 30.4141 85.2148 29.6992C85.0391 29.0898 84.875 28.3516 84.7227 27.4844C84.582 26.6055 84.5117 25.6152 84.5117 24.5137C84.5117 23.0723 84.5703 21.5898 84.6875 20.0664C84.8164 18.5312 85.0449 17.0371 85.373 15.584C85.7129 14.1309 86.1816 12.7539 86.7793 11.4531C87.3887 10.1523 88.1738 9.01562 89.1348 8.04297C90.1074 7.05859 91.2793 6.28516 92.6504 5.72266C94.0332 5.14844 95.668 4.86133 97.5547 4.86133ZM88.8008 17.3594C88.8008 18.332 88.8359 19.2754 88.9062 20.1895C88.9766 21.0918 89.0879 21.9824 89.2402 22.8613C90.4121 22.9316 91.5781 22.9727 92.7383 22.9844C93.9102 22.9961 95.0938 23.002 96.2891 23.002C97.707 23.002 99.1309 22.9961 100.561 22.9844C102.002 22.9609 103.449 22.8965 104.902 22.791C105.113 21.4902 105.219 20.2656 105.219 19.1172C105.219 18.2852 105.154 17.4004 105.025 16.4629C104.908 15.5254 104.715 14.5996 104.445 13.6855C104.176 12.7598 103.824 11.875 103.391 11.0312C102.969 10.1875 102.447 9.44922 101.826 8.81641C101.205 8.17187 100.484 7.66211 99.6641 7.28711C98.8555 6.90039 97.9355 6.70703 96.9043 6.70703C95.9551 6.70703 95.0996 6.85938 94.3379 7.16406C93.5762 7.46875 92.8906 7.88477 92.2812 8.41211C91.6836 8.93945 91.1621 9.55469 90.7168 10.2578C90.2832 10.9492 89.9258 11.6934 89.6445 12.4902C89.3633 13.2754 89.1523 14.084 89.0117 14.916C88.8711 15.748 88.8008 16.5625 88.8008 17.3594ZM126.137 4.86133C127.73 4.86133 129.131 5.14258 130.338 5.70508C131.545 6.25586 132.588 7.00586 133.467 7.95508C134.346 8.89258 135.078 9.98242 135.664 11.2246C136.262 12.4551 136.736 13.75 137.088 15.1094C137.439 16.457 137.686 17.8281 137.826 19.2227C137.979 20.6055 138.055 21.918 138.055 23.1602C138.055 24.25 137.984 25.293 137.844 26.2891C137.703 27.2852 137.551 28.1758 137.387 28.9609C137.188 29.875 136.965 30.7363 136.719 31.5449L131.393 30.5957C131.732 29.7871 132.049 28.8672 132.342 27.8359C132.646 26.8047 132.916 25.75 133.15 24.6719C131.732 24.543 130.314 24.4609 128.896 24.4258C127.49 24.3906 126.09 24.373 124.695 24.373C123.605 24.373 122.516 24.3789 121.426 24.3906C120.336 24.4023 119.24 24.4434 118.139 24.5137C118.373 25.5098 118.648 26.5059 118.965 27.502C119.281 28.498 119.645 29.5176 120.055 30.5605L114.5 31.5801C114.242 31.041 114.008 30.4141 113.797 29.6992C113.621 29.0898 113.457 28.3516 113.305 27.4844C113.164 26.6055 113.094 25.6152 113.094 24.5137C113.094 23.0723 113.152 21.5898 113.27 20.0664C113.398 18.5312 113.627 17.0371 113.955 15.584C114.295 14.1309 114.764 12.7539 115.361 11.4531C115.971 10.1523 116.756 9.01562 117.717 8.04297C118.689 7.05859 119.861 6.28516 121.232 5.72266C122.615 5.14844 124.25 4.86133 126.137 4.86133ZM117.383 17.3594C117.383 18.332 117.418 19.2754 117.488 20.1895C117.559 21.0918 117.67 21.9824 117.822 22.8613C118.994 22.9316 120.16 22.9727 121.32 22.9844C122.492 22.9961 123.676 23.002 124.871 23.002C126.289 23.002 127.713 22.9961 129.143 22.9844C130.584 22.9609 132.031 22.8965 133.484 22.791C133.695 21.4902 133.801 20.2656 133.801 19.1172C133.801 18.2852 133.736 17.4004 133.607 16.4629C133.49 15.5254 133.297 14.5996 133.027 13.6855C132.758 12.7598 132.406 11.875 131.973 11.0312C131.551 10.1875 131.029 9.44922 130.408 8.81641C129.787 8.17187 129.066 7.66211 128.246 7.28711C127.438 6.90039 126.518 6.70703 125.486 6.70703C124.537 6.70703 123.682 6.85938 122.92 7.16406C122.158 7.46875 121.473 7.88477 120.863 8.41211C120.266 8.93945 119.744 9.55469 119.299 10.2578C118.865 10.9492 118.508 11.6934 118.227 12.4902C117.945 13.2754 117.734 14.084 117.594 14.916C117.453 15.748 117.383 16.5625 117.383 17.3594ZM165.881 11.9277C165.951 13.0762 165.781 14.125 165.371 15.0742C164.973 16.0117 164.404 16.8203 163.666 17.5C162.928 18.1797 162.055 18.707 161.047 19.082C160.051 19.457 158.996 19.6387 157.883 19.627C158.75 19.6035 159.559 19.7266 160.309 19.9961C161.07 20.2656 161.738 20.6289 162.312 21.0859C162.887 21.543 163.344 22.0586 163.684 22.6328C164.035 23.207 164.229 23.7871 164.264 24.373C164.322 25.3691 164.199 26.2246 163.895 26.9395C163.59 27.6543 163.156 28.2578 162.594 28.75C162.031 29.2422 161.369 29.6406 160.607 29.9453C159.857 30.2383 159.061 30.4668 158.217 30.6309C157.385 30.7949 156.541 30.9062 155.686 30.9648C154.83 31.0234 154.027 31.0586 153.277 31.0703C151.777 31.0938 150.418 31.1055 149.199 31.1055C147.992 31.1055 146.949 31.0996 146.07 31.0879C145.039 31.0762 144.119 31.0586 143.311 31.0352C143.275 29.9922 143.24 28.9668 143.205 27.959C143.193 27.5254 143.176 27.0801 143.152 26.623C143.141 26.1543 143.129 25.6914 143.117 25.2344C143.105 24.7773 143.094 24.3379 143.082 23.916C143.07 23.4824 143.059 23.084 143.047 22.7207C143.023 22.0527 142.994 21.3027 142.959 20.4707C142.924 19.6387 142.889 18.7715 142.854 17.8691C142.818 16.9551 142.783 16.0352 142.748 15.1094C142.713 14.1719 142.678 13.2695 142.643 12.4023C142.561 10.3633 142.479 8.27148 142.396 6.12695C143.146 6.02148 144.084 5.91602 145.209 5.81055C146.17 5.7168 147.383 5.62305 148.848 5.5293C150.312 5.42383 152.064 5.33594 154.104 5.26562C154.807 5.24219 155.58 5.26562 156.424 5.33594C157.268 5.39453 158.111 5.51758 158.955 5.70508C159.811 5.88086 160.637 6.13281 161.434 6.46094C162.242 6.78906 162.963 7.20508 163.596 7.70898C164.24 8.21289 164.768 8.81641 165.178 9.51953C165.588 10.2109 165.822 11.0137 165.881 11.9277ZM161.117 12.7539C161.059 11.9453 160.889 11.2363 160.607 10.627C160.338 10.0176 159.98 9.49609 159.535 9.0625C159.09 8.61719 158.574 8.25391 157.988 7.97266C157.402 7.69141 156.781 7.47461 156.125 7.32227C155.469 7.1582 154.789 7.05273 154.086 7.00586C153.383 6.94727 152.691 6.92969 152.012 6.95312C151.777 6.96484 151.396 6.98828 150.869 7.02344C150.342 7.05859 149.797 7.09961 149.234 7.14648C148.59 7.19336 147.887 7.24609 147.125 7.30469L147.617 19.1523C148.074 19.1172 148.59 19.082 149.164 19.0469C149.656 19.0234 150.248 18.9941 150.939 18.959C151.631 18.9238 152.398 18.8945 153.242 18.8711C154.227 18.8359 155.199 18.7188 156.16 18.5195C157.133 18.3203 158 17.9922 158.762 17.5352C159.523 17.0781 160.121 16.4629 160.555 15.6895C161 14.916 161.188 13.9375 161.117 12.7539ZM159.43 24.6719C159.371 23.8281 159.125 23.1484 158.691 22.6328C158.27 22.1055 157.725 21.7012 157.057 21.4199C156.4 21.1387 155.656 20.9512 154.824 20.8574C154.004 20.7637 153.166 20.7227 152.311 20.7344C151.467 20.7344 150.646 20.7695 149.85 20.8398C149.053 20.8984 148.35 20.9395 147.74 20.9629L148.162 29.3828C148.654 29.418 149.193 29.4531 149.779 29.4883C150.271 29.5117 150.846 29.5293 151.502 29.541C152.158 29.5527 152.855 29.5469 153.594 29.5234C154.332 29.5 155.059 29.418 155.773 29.2773C156.5 29.125 157.145 28.873 157.707 28.5215C158.27 28.1582 158.709 27.6719 159.025 27.0625C159.354 26.4414 159.488 25.6445 159.43 24.6719ZM182.316 4.86133C183.91 4.86133 185.311 5.14258 186.518 5.70508C187.725 6.25586 188.768 7.00586 189.646 7.95508C190.525 8.89258 191.258 9.98242 191.844 11.2246C192.441 12.4551 192.916 13.75 193.268 15.1094C193.619 16.457 193.865 17.8281 194.006 19.2227C194.158 20.6055 194.234 21.918 194.234 23.1602C194.234 24.25 194.164 25.293 194.023 26.2891C193.883 27.2852 193.73 28.1758 193.566 28.9609C193.367 29.875 193.145 30.7363 192.898 31.5449L187.572 30.5957C187.912 29.7871 188.229 28.8672 188.521 27.8359C188.826 26.8047 189.096 25.75 189.33 24.6719C187.912 24.543 186.494 24.4609 185.076 24.4258C183.67 24.3906 182.27 24.373 180.875 24.373C179.785 24.373 178.695 24.3789 177.605 24.3906C176.516 24.4023 175.42 24.4434 174.318 24.5137C174.553 25.5098 174.828 26.5059 175.145 27.502C175.461 28.498 175.824 29.5176 176.234 30.5605L170.68 31.5801C170.422 31.041 170.188 30.4141 169.977 29.6992C169.801 29.0898 169.637 28.3516 169.484 27.4844C169.344 26.6055 169.273 25.6152 169.273 24.5137C169.273 23.0723 169.332 21.5898 169.449 20.0664C169.578 18.5312 169.807 17.0371 170.135 15.584C170.475 14.1309 170.943 12.7539 171.541 11.4531C172.15 10.1523 172.936 9.01562 173.896 8.04297C174.869 7.05859 176.041 6.28516 177.412 5.72266C178.795 5.14844 180.43 4.86133 182.316 4.86133ZM173.562 17.3594C173.562 18.332 173.598 19.2754 173.668 20.1895C173.738 21.0918 173.85 21.9824 174.002 22.8613C175.174 22.9316 176.34 22.9727 177.5 22.9844C178.672 22.9961 179.855 23.002 181.051 23.002C182.469 23.002 183.893 22.9961 185.322 22.9844C186.764 22.9609 188.211 22.8965 189.664 22.791C189.875 21.4902 189.98 20.2656 189.98 19.1172C189.98 18.2852 189.916 17.4004 189.787 16.4629C189.67 15.5254 189.477 14.5996 189.207 13.6855C188.938 12.7598 188.586 11.875 188.152 11.0312C187.73 10.1875 187.209 9.44922 186.588 8.81641C185.967 8.17187 185.246 7.66211 184.426 7.28711C183.617 6.90039 182.697 6.70703 181.666 6.70703C180.717 6.70703 179.861 6.85938 179.1 7.16406C178.338 7.46875 177.652 7.88477 177.043 8.41211C176.445 8.93945 175.924 9.55469 175.479 10.2578C175.045 10.9492 174.688 11.6934 174.406 12.4902C174.125 13.2754 173.914 14.084 173.773 14.916C173.633 15.748 173.562 16.5625 173.562 17.3594Z" fill="#4B2E28"/>
<path d="M14.1 29.9C10.2333 29.9 6.91667 28.5667 4.15 25.9C1.38333 23.2333 0 19.9833 0 16.15V3C0 2.16667 0.291667 1.45833 0.875 0.875C1.45833 0.291667 2.16667 0 3 0H29.45C31.25 0 32.7917 0.616667 34.075 1.85C35.3583 3.08333 36 4.6 36 6.4C36 8.4 35.3833 10.1667 34.15 11.7C32.9167 13.2333 31.35 14 29.45 14H28.2V16.15C28.2 19.9833 26.8167 23.2333 24.05 25.9C21.2833 28.5667 17.9667 29.9 14.1 29.9ZM3 11H25.2V3H3V11ZM14.1 26.9C17.1333 26.9 19.7417 25.8667 21.925 23.8C24.1083 21.7333 25.2 19.1833 25.2 16.15V14H3V16.15C3 19.1833 4.09167 21.7333 6.275 23.8C8.45833 25.8667 11.0667 26.9 14.1 26.9ZM28.2 11H29.45C30.55 11 31.4167 10.525 32.05 9.575C32.6833 8.625 33 7.56667 33 6.4C33 5.43333 32.65 4.625 31.95 3.975C31.25 3.325 30.4167 3 29.45 3H28.2V11ZM0 36V33H32V36H0Z" fill="#4B2E28"/>
</svg>
